STARTFONT 2.1
COMMENT
COMMENT Converted from OpenType font "score_large.otf" by "otf2bdf 3.0".
COMMENT
FONT -FreeType-My Font-Medium-R-Normal--30-300-72-72-P-100-ISO10646-1
SIZE 30 72 72
FONTBOUNDINGBOX 21 25 0 -2
STARTPROPERTIES 19
FOUNDRY "FreeType"
FAMILY_NAME "My Font"
WEIGHT_NAME "Medium"
SLANT "R"
SETWIDTH_NAME "Normal"
ADD_STYLE_NAME ""
PIXEL_SIZE 30
POINT_SIZE 300
RESOLUTION_X 72
RESOLUTION_Y 72
SPACING "P"
AVERAGE_WIDTH 100
CHARSET_REGISTRY "ISO10646"
CHARSET_ENCODING "1"
FONT_ASCENT 22
FONT_DESCENT 1
COPYRIGHT "Copyright DarkMaxX 2011"
_OTF_FONTFILE "score_large.otf"
_OTF_PSNAME "MyFontRegular"
ENDPROPERTIES
CHARS 84
STARTCHAR 0020
ENCODING 32
SWIDTH 200 0
DWIDTH 6 0
BBX 0 0 0 0
BITMAP
ENDCHAR
STARTCHAR 0021
ENCODING 33
SWIDTH 200 0
DWIDTH 6 0
BBX 4 21 0 0
BITMAP
F0
F0
F0
F0
F0
F0
F0
F0
F0
F0
F0
F0
F0
F0
F0
00
00
00
00
F0
F0
ENDCHAR
STARTCHAR 0022
ENCODING 34
SWIDTH 366 0
DWIDTH 11 0
BBX 9 4 0 17
BITMAP
F380
F380
F380
F380
ENDCHAR
STARTCHAR 0024
ENCODING 36
SWIDTH 433 0
DWIDTH 13 0
BBX 11 25 0 -2
BITMAP
0F00
0F00
3FE0
3FE0
FFE0
FFE0
FF00
FF00
FF00
FF00
FF00
FF00
3F80
3F80
0FE0
0FE0
0FE0
0FE0
0FE0
FFE0
FFE0
FFE0
FFE0
0F00
0F00
ENDCHAR
STARTCHAR 0027
ENCODING 39
SWIDTH 200 0
DWIDTH 6 0
BBX 4 4 0 17
BITMAP
F0
F0
F0
F0
ENDCHAR
STARTCHAR 0028
ENCODING 40
SWIDTH 200 0
DWIDTH 6 0
BBX 4 21 0 0
BITMAP
30
30
C0
C0
C0
C0
C0
C0
C0
C0
C0
C0
C0
C0
C0
C0
C0
C0
C0
30
30
ENDCHAR
STARTCHAR 0029
ENCODING 41
SWIDTH 200 0
DWIDTH 6 0
BBX 4 21 0 0
BITMAP
C0
C0
30
30
30
30
30
30
30
30
30
30
30
30
30
30
30
30
30
C0
C0
ENDCHAR
STARTCHAR 002C
ENCODING 44
SWIDTH 200 0
DWIDTH 6 0
BBX 4 6 0 -2
BITMAP
F0
F0
F0
F0
30
30
ENDCHAR
STARTCHAR 002D
ENCODING 45
SWIDTH 366 0
DWIDTH 11 0
BBX 9 1 0 8
BITMAP
FF80
ENDCHAR
STARTCHAR 002E
ENCODING 46
SWIDTH 200 0
DWIDTH 6 0
BBX 4 4 0 0
BITMAP
F0
F0
F0
F0
ENDCHAR
STARTCHAR 002F
ENCODING 47
SWIDTH 766 0
DWIDTH 23 0
BBX 21 19 0 0
BITMAP
000078
000078
0001E0
0001E0
000780
000780
001E00
001E00
007800
007800
01E000
018000
038000
0F0000
0F0000
3C0000
3C0000
F00000
F00000
ENDCHAR
STARTCHAR 0030
ENCODING 48
SWIDTH 366 0
DWIDTH 11 0
BBX 9 21 0 0
BITMAP
0F80
0F80
3F80
3F80
F380
F380
F380
F380
F380
F380
F380
F380
F380
F380
F380
F380
F380
FF80
FF80
FF80
FF80
ENDCHAR
STARTCHAR 0031
ENCODING 49
SWIDTH 366 0
DWIDTH 11 0
BBX 9 21 0 0
BITMAP
0F00
0F00
3F00
3F00
0F00
0F00
0F00
0F00
0F00
0F00
0F00
0F00
0F00
0F00
0F00
0F00
0F00
0F00
0F00
FF80
FF80
ENDCHAR
STARTCHAR 0032
ENCODING 50
SWIDTH 366 0
DWIDTH 11 0
BBX 9 21 0 0
BITMAP
0F80
0F80
3F80
3F80
F380
F380
F380
F380
0380
0380
0F00
0F00
3C00
3000
F000
F000
F000
FF80
FF80
FF80
FF80
ENDCHAR
STARTCHAR 0033
ENCODING 51
SWIDTH 366 0
DWIDTH 11 0
BBX 9 21 0 0
BITMAP
3F80
3F80
FF80
FF80
F380
F380
0380
0380
0F00
0F00
0F00
0F00
0380
0380
0380
F380
F380
FF80
FF80
FF80
FF80
ENDCHAR
STARTCHAR 0034
ENCODING 52
SWIDTH 433 0
DWIDTH 13 0
BBX 11 21 0 0
BITMAP
0F80
0F80
3F80
3F80
F380
F380
F380
F380
F380
F380
F380
F380
F380
F3E0
FFE0
FFE0
FFE0
0380
0380
0380
0380
ENDCHAR
STARTCHAR 0035
ENCODING 53
SWIDTH 366 0
DWIDTH 11 0
BBX 9 21 0 0
BITMAP
FF80
FF80
FF80
FF80
F000
F000
FF80
FF80
FF80
FF80
0380
0380
0380
0380
0380
0380
0380
FF00
FF00
FC00
FC00
ENDCHAR
STARTCHAR 0036
ENCODING 54
SWIDTH 366 0
DWIDTH 11 0
BBX 9 21 0 0
BITMAP
0F80
0F80
3F00
3F00
FC00
FC00
F000
F000
FF80
FF80
F380
F380
F380
F380
F380
F380
F380
FF00
FF00
FC00
FC00
ENDCHAR
STARTCHAR 0037
ENCODING 55
SWIDTH 366 0
DWIDTH 11 0
BBX 9 21 0 0
BITMAP
FF80
FF80
FF80
FF80
0380
0380
0380
0380
0F00
0F00
3C00
3C00
3C00
3C00
3C00
3C00
3C00
3C00
3C00
3C00
3C00
ENDCHAR
STARTCHAR 0038
ENCODING 56
SWIDTH 366 0
DWIDTH 11 0
BBX 9 21 0 0
BITMAP
3F80
3F80
FF80
FF80
F380
F380
F380
F380
F380
F380
3F00
3F00
F380
F380
F380
F380
F380
FF80
FF80
FF00
FF00
ENDCHAR
STARTCHAR 0039
ENCODING 57
SWIDTH 366 0
DWIDTH 11 0
BBX 9 21 0 0
BITMAP
0F80
0F80
3F80
3F80
F380
F380
F380
F380
F380
F380
F380
F380
FF80
FF80
0380
0F80
0F80
3F00
3F00
FC00
FC00
ENDCHAR
STARTCHAR 003A
ENCODING 58
SWIDTH 200 0
DWIDTH 6 0
BBX 4 9 0 0
BITMAP
F0
F0
F0
00
00
F0
F0
F0
F0
ENDCHAR
STARTCHAR 003B
ENCODING 59
SWIDTH 200 0
DWIDTH 6 0
BBX 4 11 0 -2
BITMAP
F0
F0
F0
00
00
F0
F0
F0
F0
30
30
ENDCHAR
STARTCHAR 003D
ENCODING 61
SWIDTH 366 0
DWIDTH 11 0
BBX 9 5 0 8
BITMAP
FF80
FF80
0000
0000
FF80
ENDCHAR
STARTCHAR 003F
ENCODING 63
SWIDTH 366 0
DWIDTH 11 0
BBX 9 21 0 0
BITMAP
0F80
0F80
3F80
3F80
F380
F380
F380
F380
0380
0380
0F00
0F00
3C00
3000
F000
F000
F000
0000
0000
F000
F000
ENDCHAR
STARTCHAR 0041
ENCODING 65
SWIDTH 433 0
DWIDTH 13 0
BBX 11 21 0 0
BITMAP
3F80
3F80
FFE0
FFE0
F1E0
F1E0
F1E0
F1E0
F1E0
F1E0
FFE0
FFE0
FFE0
F1E0
F1E0
F1E0
F1E0
F1E0
F1E0
F1E0
F1E0
ENDCHAR
STARTCHAR 0042
ENCODING 66
SWIDTH 433 0
DWIDTH 13 0
BBX 11 21 0 0
BITMAP
FF00
FF00
FF80
FF80
F3E0
F3E0
F1E0
F1E0
FF80
FF80
FF00
FF00
FF80
F3E0
F3E0
F1E0
F1E0
FFE0
FFE0
FFE0
FFE0
ENDCHAR
STARTCHAR 0043
ENCODING 67
SWIDTH 433 0
DWIDTH 13 0
BBX 11 21 0 0
BITMAP
3FE0
3FE0
FFE0
FFE0
F000
F000
F000
F000
F000
F000
F000
F000
F000
F000
F000
F000
F000
FFE0
FFE0
FFE0
FFE0
ENDCHAR
STARTCHAR 0044
ENCODING 68
SWIDTH 433 0
DWIDTH 13 0
BBX 11 21 0 0
BITMAP
FF80
FF80
FFE0
FFE0
F1E0
F1E0
F1E0
F1E0
F1E0
F1E0
F1E0
F1E0
F1E0
F1E0
F1E0
F1E0
F1E0
FFE0
FFE0
FF80
FF80
ENDCHAR
STARTCHAR 0045
ENCODING 69
SWIDTH 433 0
DWIDTH 13 0
BBX 11 21 0 0
BITMAP
FFE0
FFE0
FFE0
FFE0
F000
F000
F000
F000
FFE0
FFE0
FF80
FF80
F000
F000
F000
F000
F000
FFE0
FFE0
FFE0
FFE0
ENDCHAR
STARTCHAR 0046
ENCODING 70
SWIDTH 433 0
DWIDTH 13 0
BBX 11 21 0 0
BITMAP
FFE0
FFE0
FFE0
FFE0
F000
F000
F000
F000
FFE0
FFE0
FF80
FF80
F000
F000
F000
F000
F000
F000
F000
F000
F000
ENDCHAR
STARTCHAR 0047
ENCODING 71
SWIDTH 433 0
DWIDTH 13 0
BBX 11 21 0 0
BITMAP
3FE0
3FE0
FFE0
FFE0
F000
F000
F000
F000
F000
F000
F3E0
F3E0
F3E0
F3E0
F1E0
F1E0
F1E0
FFE0
FFE0
FFE0
FFE0
ENDCHAR
STARTCHAR 0048
ENCODING 72
SWIDTH 500 0
DWIDTH 15 0
BBX 13 21 0 0
BITMAP
F078
F078
F078
F078
F078
F078
F078
F078
FFF8
FFF8
FFF8
FFF8
F078
F078
F078
F078
F078
F078
F078
F078
F078
ENDCHAR
STARTCHAR 0049
ENCODING 73
SWIDTH 200 0
DWIDTH 6 0
BBX 4 21 0 0
BITMAP
F0
F0
F0
F0
F0
F0
F0
F0
F0
F0
F0
F0
F0
F0
F0
F0
F0
F0
F0
F0
F0
ENDCHAR
STARTCHAR 004A
ENCODING 74
SWIDTH 366 0
DWIDTH 11 0
BBX 9 21 0 0
BITMAP
0380
0380
0380
0380
0380
0380
0380
0380
0380
0380
0380
0380
0380
0380
0380
F380
F380
FF80
FF80
FF80
FF80
ENDCHAR
STARTCHAR 004B
ENCODING 75
SWIDTH 433 0
DWIDTH 13 0
BBX 11 21 0 0
BITMAP
F1E0
F1E0
F1E0
F1E0
F380
F380
F380
F380
FF00
FF00
FF00
FF00
FF00
F380
F380
F380
F380
F1E0
F1E0
F1E0
F1E0
ENDCHAR
STARTCHAR 004C
ENCODING 76
SWIDTH 433 0
DWIDTH 13 0
BBX 11 21 0 0
BITMAP
F000
F000
F000
F000
F000
F000
F000
F000
F000
F000
F000
F000
F000
F000
F000
F000
F000
FFE0
FFE0
FFE0
FFE0
ENDCHAR
STARTCHAR 004D
ENCODING 77
SWIDTH 433 0
DWIDTH 13 0
BBX 11 21 0 0
BITMAP
C060
C060
C060
C060
F1E0
F1E0
F1E0
F1E0
FFE0
FFE0
FFE0
FFE0
CF60
CF60
CF60
F1E0
F1E0
F1E0
F1E0
F1E0
F1E0
ENDCHAR
STARTCHAR 004E
ENCODING 78
SWIDTH 433 0
DWIDTH 13 0
BBX 11 21 0 0
BITMAP
F1E0
F1E0
F1E0
F1E0
FDE0
FDE0
FDE0
FDE0
FFE0
FFE0
FFE0
FFE0
FFE0
F3E0
F3E0
F3E0
F3E0
F1E0
F1E0
F1E0
F1E0
ENDCHAR
STARTCHAR 004F
ENCODING 79
SWIDTH 433 0
DWIDTH 13 0
BBX 11 21 0 0
BITMAP
3F80
3F80
FFE0
FFE0
F1E0
F1E0
F1E0
F1E0
F1E0
F1E0
F1E0
F1E0
F1E0
F1E0
F1E0
F1E0
F1E0
FFE0
FFE0
FFE0
FFE0
ENDCHAR
STARTCHAR 0050
ENCODING 80
SWIDTH 433 0
DWIDTH 13 0
BBX 11 21 0 0
BITMAP
FF00
FF00
FF80
FF80
F3E0
F3E0
F1E0
F1E0
F3E0
F3E0
FF80
FF80
FF00
F000
F000
F000
F000
F000
F000
F000
F000
ENDCHAR
STARTCHAR 0051
ENCODING 81
SWIDTH 500 0
DWIDTH 15 0
BBX 13 21 0 0
BITMAP
3F80
3F80
FFE0
FFE0
F1E0
F1E0
F1E0
F1E0
F1E0
F1E0
F1E0
F1E0
F1E0
F1E0
F1E0
F1E0
F1E0
FFF8
FFF8
FFF8
FFF8
ENDCHAR
STARTCHAR 0052
ENCODING 82
SWIDTH 433 0
DWIDTH 13 0
BBX 11 21 0 0
BITMAP
FF00
FF00
FF80
FF80
F3E0
F3E0
F1E0
F1E0
F3E0
F3E0
FF80
FF80
FF00
F380
F380
F1E0
F1E0
F1E0
F1E0
F1E0
F1E0
ENDCHAR
STARTCHAR 0053
ENCODING 83
SWIDTH 433 0
DWIDTH 13 0
BBX 11 21 0 0
BITMAP
3FE0
3FE0
FFE0
FFE0
F000
F000
F000
F000
FC00
FC00
3F80
3F80
03E0
03E0
01E0
01E0
01E0
FFE0
FFE0
FFE0
FFE0
ENDCHAR
STARTCHAR 0054
ENCODING 84
SWIDTH 433 0
DWIDTH 13 0
BBX 11 21 0 0
BITMAP
FFE0
FFE0
FFE0
FFE0
0F00
0F00
0F00
0F00
0F00
0F00
0F00
0F00
0F00
0F00
0F00
0F00
0F00
0F00
0F00
0F00
0F00
ENDCHAR
STARTCHAR 0055
ENCODING 85
SWIDTH 433 0
DWIDTH 13 0
BBX 11 21 0 0
BITMAP
F1E0
F1E0
F1E0
F1E0
F1E0
F1E0
F1E0
F1E0
F1E0
F1E0
F1E0
F1E0
F1E0
F1E0
F1E0
F1E0
F1E0
FFE0
FFE0
FFE0
FFE0
ENDCHAR
STARTCHAR 0056
ENCODING 86
SWIDTH 433 0
DWIDTH 13 0
BBX 11 21 0 0
BITMAP
F1E0
F1E0
F1E0
F1E0
F1E0
F1E0
F1E0
F1E0
F1E0
F1E0
F1E0
F1E0
F1E0
F180
3F80
3F80
3F80
0F00
0F00
0F00
0F00
ENDCHAR
STARTCHAR 0057
ENCODING 87
SWIDTH 433 0
DWIDTH 13 0
BBX 11 21 0 0
BITMAP
CF60
CF60
CF60
CF60
CF60
CF60
CF60
CF60
CF60
CF60
CF60
CF60
CF60
CF60
FFE0
FFE0
FFE0
F1E0
F1E0
3180
3180
ENDCHAR
STARTCHAR 0058
ENCODING 88
SWIDTH 433 0
DWIDTH 13 0
BBX 11 21 0 0
BITMAP
F1E0
F1E0
F1E0
F1E0
F1E0
F1E0
F1E0
F1E0
3F80
3F80
0F00
0F00
3F80
31E0
F1E0
F1E0
F1E0
F1E0
F1E0
F1E0
F1E0
ENDCHAR
STARTCHAR 0059
ENCODING 89
SWIDTH 433 0
DWIDTH 13 0
BBX 11 21 0 0
BITMAP
F1E0
F1E0
F1E0
F1E0
F1E0
F1E0
FFE0
FFE0
3F80
3F80
0F00
0F00
0F00
0F00
0F00
0F00
0F00
0F00
0F00
0F00
0F00
ENDCHAR
STARTCHAR 005A
ENCODING 90
SWIDTH 433 0
DWIDTH 13 0
BBX 11 21 0 0
BITMAP
FFE0
FFE0
FFE0
FFE0
01E0
01E0
0380
0380
0380
0380
0F00
0F00
0F00
0C00
3C00
3C00
3C00
FFE0
FFE0
FFE0
FFE0
ENDCHAR
STARTCHAR 005B
ENCODING 91
SWIDTH 266 0
DWIDTH 8 0
BBX 6 21 0 0
BITMAP
FC
FC
F0
F0
F0
F0
F0
F0
F0
F0
F0
F0
F0
F0
F0
F0
F0
F0
F0
FC
FC
ENDCHAR
STARTCHAR 005D
ENCODING 93
SWIDTH 266 0
DWIDTH 8 0
BBX 6 21 0 0
BITMAP
FC
FC
3C
3C
3C
3C
3C
3C
3C
3C
3C
3C
3C
3C
3C
3C
3C
3C
3C
FC
FC
ENDCHAR
STARTCHAR 005F
ENCODING 95
SWIDTH 500 0
DWIDTH 15 0
BBX 13 2 0 0
BITMAP
FFF8
FFF8
ENDCHAR
STARTCHAR 0061
ENCODING 97
SWIDTH 433 0
DWIDTH 13 0
BBX 11 21 0 0
BITMAP
3F80
3F80
FFE0
FFE0
F1E0
F1E0
F1E0
F1E0
F1E0
F1E0
FFE0
FFE0
FFE0
F1E0
F1E0
F1E0
F1E0
F1E0
F1E0
F1E0
F1E0
ENDCHAR
STARTCHAR 0062
ENCODING 98
SWIDTH 433 0
DWIDTH 13 0
BBX 11 21 0 0
BITMAP
FF00
FF00
FF80
FF80
F3E0
F3E0
F1E0
F1E0
FF80
FF80
FF00
FF00
FF80
F3E0
F3E0
F1E0
F1E0
FFE0
FFE0
FFE0
FFE0
ENDCHAR
STARTCHAR 0063
ENCODING 99
SWIDTH 433 0
DWIDTH 13 0
BBX 11 21 0 0
BITMAP
3FE0
3FE0
FFE0
FFE0
F000
F000
F000
F000
F000
F000
F000
F000
F000
F000
F000
F000
F000
FFE0
FFE0
FFE0
FFE0
ENDCHAR
STARTCHAR 0064
ENCODING 100
SWIDTH 433 0
DWIDTH 13 0
BBX 11 21 0 0
BITMAP
FF80
FF80
FFE0
FFE0
F1E0
F1E0
F1E0
F1E0
F1E0
F1E0
F1E0
F1E0
F1E0
F1E0
F1E0
F1E0
F1E0
FFE0
FFE0
FF80
FF80
ENDCHAR
STARTCHAR 0065
ENCODING 101
SWIDTH 433 0
DWIDTH 13 0
BBX 11 21 0 0
BITMAP
FFE0
FFE0
FFE0
FFE0
F000
F000
F000
F000
FFE0
FFE0
FF80
FF80
F000
F000
F000
F000
F000
FFE0
FFE0
FFE0
FFE0
ENDCHAR
STARTCHAR 0066
ENCODING 102
SWIDTH 433 0
DWIDTH 13 0
BBX 11 21 0 0
BITMAP
FFE0
FFE0
FFE0
FFE0
F000
F000
F000
F000
FFE0
FFE0
FF80
FF80
F000
F000
F000
F000
F000
F000
F000
F000
F000
ENDCHAR
STARTCHAR 0067
ENCODING 103
SWIDTH 433 0
DWIDTH 13 0
BBX 11 21 0 0
BITMAP
3FE0
3FE0
FFE0
FFE0
F000
F000
F000
F000
F000
F000
F3E0
F3E0
F3E0
F3E0
F1E0
F1E0
F1E0
FFE0
FFE0
FFE0
FFE0
ENDCHAR
STARTCHAR 0068
ENCODING 104
SWIDTH 500 0
DWIDTH 15 0
BBX 13 21 0 0
BITMAP
F078
F078
F078
F078
F078
F078
F078
F078
FFF8
FFF8
FFF8
FFF8
F078
F078
F078
F078
F078
F078
F078
F078
F078
ENDCHAR
STARTCHAR 0069
ENCODING 105
SWIDTH 200 0
DWIDTH 6 0
BBX 4 21 0 0
BITMAP
F0
F0
F0
F0
F0
F0
F0
F0
F0
F0
F0
F0
F0
F0
F0
F0
F0
F0
F0
F0
F0
ENDCHAR
STARTCHAR 006A
ENCODING 106
SWIDTH 366 0
DWIDTH 11 0
BBX 9 21 0 0
BITMAP
0380
0380
0380
0380
0380
0380
0380
0380
0380
0380
0380
0380
0380
0380
0380
F380
F380
FF80
FF80
FF80
FF80
ENDCHAR
STARTCHAR 006B
ENCODING 107
SWIDTH 433 0
DWIDTH 13 0
BBX 11 21 0 0
BITMAP
F1E0
F1E0
F1E0
F1E0
F380
F380
F380
F380
FF00
FF00
FF00
FF00
FF00
F380
F380
F380
F380
F1E0
F1E0
F1E0
F1E0
ENDCHAR
STARTCHAR 006C
ENCODING 108
SWIDTH 433 0
DWIDTH 13 0
BBX 11 21 0 0
BITMAP
F000
F000
F000
F000
F000
F000
F000
F000
F000
F000
F000
F000
F000
F000
F000
F000
F000
FFE0
FFE0
FFE0
FFE0
ENDCHAR
STARTCHAR 006D
ENCODING 109
SWIDTH 433 0
DWIDTH 13 0
BBX 11 21 0 0
BITMAP
C060
C060
C060
C060
F1E0
F1E0
F1E0
F1E0
FFE0
FFE0
FFE0
FFE0
CF60
CF60
CF60
F1E0
F1E0
F1E0
F1E0
F1E0
F1E0
ENDCHAR
STARTCHAR 006E
ENCODING 110
SWIDTH 433 0
DWIDTH 13 0
BBX 11 21 0 0
BITMAP
F1E0
F1E0
F1E0
F1E0
FDE0
FDE0
FDE0
FDE0
FFE0
FFE0
FFE0
FFE0
FFE0
F3E0
F3E0
F3E0
F3E0
F1E0
F1E0
F1E0
F1E0
ENDCHAR
STARTCHAR 006F
ENCODING 111
SWIDTH 433 0
DWIDTH 13 0
BBX 11 21 0 0
BITMAP
3F80
3F80
FFE0
FFE0
F1E0
F1E0
F1E0
F1E0
F1E0
F1E0
F1E0
F1E0
F1E0
F1E0
F1E0
F1E0
F1E0
FFE0
FFE0
FFE0
FFE0
ENDCHAR
STARTCHAR 0070
ENCODING 112
SWIDTH 433 0
DWIDTH 13 0
BBX 11 21 0 0
BITMAP
FF00
FF00
FF80
FF80
F3E0
F3E0
F1E0
F1E0
F3E0
F3E0
FF80
FF80
FF00
F000
F000
F000
F000
F000
F000
F000
F000
ENDCHAR
STARTCHAR 0071
ENCODING 113
SWIDTH 500 0
DWIDTH 15 0
BBX 13 21 0 0
BITMAP
3F80
3F80
FFE0
FFE0
F1E0
F1E0
F1E0
F1E0
F1E0
F1E0
F1E0
F1E0
F1E0
F1E0
F1E0
F1E0
F1E0
FFF8
FFF8
FFF8
FFF8
ENDCHAR
STARTCHAR 0072
ENCODING 114
SWIDTH 433 0
DWIDTH 13 0
BBX 11 21 0 0
BITMAP
FF00
FF00
FF80
FF80
F3E0
F3E0
F1E0
F1E0
F3E0
F3E0
FF80
FF80
FF00
F380
F380
F1E0
F1E0
F1E0
F1E0
F1E0
F1E0
ENDCHAR
STARTCHAR 0073
ENCODING 115
SWIDTH 433 0
DWIDTH 13 0
BBX 11 21 0 0
BITMAP
3FE0
3FE0
FFE0
FFE0
F000
F000
F000
F000
FC00
FC00
3F80
3F80
03E0
03E0
01E0
01E0
01E0
FFE0
FFE0
FFE0
FFE0
ENDCHAR
STARTCHAR 0074
ENCODING 116
SWIDTH 433 0
DWIDTH 13 0
BBX 11 21 0 0
BITMAP
FFE0
FFE0
FFE0
FFE0
0F00
0F00
0F00
0F00
0F00
0F00
0F00
0F00
0F00
0F00
0F00
0F00
0F00
0F00
0F00
0F00
0F00
ENDCHAR
STARTCHAR 0075
ENCODING 117
SWIDTH 433 0
DWIDTH 13 0
BBX 11 21 0 0
BITMAP
F1E0
F1E0
F1E0
F1E0
F1E0
F1E0
F1E0
F1E0
F1E0
F1E0
F1E0
F1E0
F1E0
F1E0
F1E0
F1E0
F1E0
FFE0
FFE0
FFE0
FFE0
ENDCHAR
STARTCHAR 0076
ENCODING 118
SWIDTH 433 0
DWIDTH 13 0
BBX 11 21 0 0
BITMAP
F1E0
F1E0
F1E0
F1E0
F1E0
F1E0
F1E0
F1E0
F1E0
F1E0
F1E0
F1E0
F1E0
F180
3F80
3F80
3F80
0F00
0F00
0F00
0F00
ENDCHAR
STARTCHAR 0077
ENCODING 119
SWIDTH 433 0
DWIDTH 13 0
BBX 11 21 0 0
BITMAP
CF60
CF60
CF60
CF60
CF60
CF60
CF60
CF60
CF60
CF60
CF60
CF60
CF60
CF60
FFE0
FFE0
FFE0
F1E0
F1E0
3180
3180
ENDCHAR
STARTCHAR 0078
ENCODING 120
SWIDTH 433 0
DWIDTH 13 0
BBX 11 21 0 0
BITMAP
F1E0
F1E0
F1E0
F1E0
F1E0
F1E0
F1E0
F1E0
3F80
3F80
0F00
0F00
3F80
31E0
F1E0
F1E0
F1E0
F1E0
F1E0
F1E0
F1E0
ENDCHAR
STARTCHAR 0079
ENCODING 121
SWIDTH 433 0
DWIDTH 13 0
BBX 11 21 0 0
BITMAP
F1E0
F1E0
F1E0
F1E0
F1E0
F1E0
FFE0
FFE0
3F80
3F80
0F00
0F00
0F00
0F00
0F00
0F00
0F00
0F00
0F00
0F00
0F00
ENDCHAR
STARTCHAR 007A
ENCODING 122
SWIDTH 433 0
DWIDTH 13 0
BBX 11 21 0 0
BITMAP
FFE0
FFE0
FFE0
FFE0
01E0
01E0
0380
0380
0380
0380
0F00
0F00
0F00
0C00
3C00
3C00
3C00
FFE0
FFE0
FFE0
FFE0
ENDCHAR
STARTCHAR 2018
ENCODING 8216
SWIDTH 200 0
DWIDTH 6 0
BBX 4 6 0 15
BITMAP
C0
C0
F0
F0
F0
F0
ENDCHAR
STARTCHAR 2019
ENCODING 8217
SWIDTH 200 0
DWIDTH 6 0
BBX 4 6 0 15
BITMAP
F0
F0
F0
F0
30
30
ENDCHAR
STARTCHAR 201C
ENCODING 8220
SWIDTH 366 0
DWIDTH 11 0
BBX 9 6 0 15
BITMAP
C300
C300
F380
F380
F380
F380
ENDCHAR
STARTCHAR 201D
ENCODING 8221
SWIDTH 366 0
DWIDTH 11 0
BBX 9 6 0 15
BITMAP
F380
F380
F380
F380
3180
3180
ENDCHAR
ENDFONT
